<?xml version="1.0" standalone="no"?><!DOCTYPE svg PUBLIC "-//W3C//DTD SVG 1.1//EN" "http://www.w3.org/Graphics/SVG/1.1/DTD/svg11.dtd"><svg t="1661270024340" class="icon" viewBox="0 0 1024 1024" version="1.1" xmlns="http://www.w3.org/2000/svg" p-id="8606" width="32" height="32" xmlns:xlink="http://www.w3.org/1999/xlink"><defs><style type="text/css"></style></defs><path d="M508.8768 244.1728a18.5344 18.5344 0 0 1 16.4352 9.5232L677.376 517.12l152.064 263.3216a18.9952 18.9952 0 0 1-16.4352 28.4672H204.8a18.9952 18.9952 0 0 1-16.4352-28.4672L340.3776 517.12l152.064-263.3728a18.6368 18.6368 0 0 1 16.4352-9.5232m0-25.6a44.288 44.288 0 0 0-38.7072 22.016l-152.064 263.5776-152.064 263.3728A44.6976 44.6976 0 0 0 204.8 834.56h608.256a44.6976 44.6976 0 0 0 38.7072-67.0208l-152.064-263.3728L547.84 240.64a44.288 44.288 0 0 0-38.7072-22.3744z" fill="#FF0000" p-id="8607"></path><path d="M509.3888 366.4896a22.7328 22.7328 0 0 1 22.7328 22.1184l-13.568 222.8736a9.1648 9.1648 0 0 1-18.3296 0L486.656 388.608a22.7328 22.7328 0 0 1 22.7328-22.1184m0-25.6A48.4352 48.4352 0 0 0 460.8 389.12l13.6192 223.7952a34.8672 34.8672 0 0 0 69.632 0L558.08 389.12a48.4864 48.4864 0 0 0-48.4352-48.4352zM509.3888 726.0672A11.2128 11.2128 0 1 1 498.176 737.28a11.264 11.264 0 0 1 11.2128-11.2128m0-25.6a36.9152 36.9152 0 1 0 36.864 36.9152 36.9152 36.9152 0 0 0-36.864-36.9152zM554.3936 183.04a12.8512 12.8512 0 0 1-11.1616-6.4512 39.68 39.68 0 0 0-68.7104 0A12.8 12.8 0 1 1 452.3008 163.84a65.3312 65.3312 0 0 1 113.2032 0 12.8512 12.8512 0 0 1-11.1104 19.2512zM147.6096 894.0032a65.3824 65.3824 0 0 1-56.6272-98.048 12.8512 12.8512 0 0 1 22.272 13.0048 39.68 39.68 0 0 0 34.3552 59.4944 12.8512 12.8512 0 0 1 0 25.6zM875.52 890.88a12.8512 12.8512 0 0 1 0-25.6 39.68 39.68 0 0 0 34.3552-59.4944 12.8512 12.8512 0 0 1 22.272-12.8512A65.3824 65.3824 0 0 1 875.52 890.88z" fill="#FF0000" p-id="8608"></path></svg>